<?xml version="1.0" encoding="UTF-8" standalone="no"?>
<!-- Created with Inkscape (http://www.inkscape.org/) -->

<svg
   xmlns:dc="http://purl.org/dc/elements/1.1/"
   xmlns:cc="http://creativecommons.org/ns#"
   xmlns:rdf="http://www.w3.org/1999/02/22-rdf-syntax-ns#"
   xmlns:svg="http://www.w3.org/2000/svg"
   xmlns="http://www.w3.org/2000/svg"
   xmlns:sodipodi="http://sodipodi.sourceforge.net/DTD/sodipodi-0.dtd"
   xmlns:inkscape="http://www.inkscape.org/namespaces/inkscape"
   width="48.925091mm"
   height="48.925091mm"
   viewBox="0 0 48.925091 48.92509"
   version="1.1"
   id="svg5522"
   inkscape:version="0.92.1 r15371"
   sodipodi:docname="land.svg">
  <defs
     id="defs5516" />
  <sodipodi:namedview
     id="base"
     pagecolor="#ffffff"
     bordercolor="#666666"
     borderopacity="1.0"
     inkscape:pageopacity="0.0"
     inkscape:pageshadow="2"
     inkscape:zoom="0.35"
     inkscape:cx="-1548.9718"
     inkscape:cy="84.957811"
     inkscape:document-units="mm"
     inkscape:current-layer="layer1"
     showgrid="false"
     fit-margin-top="0"
     fit-margin-left="0"
     fit-margin-right="0"
     fit-margin-bottom="0"
     inkscape:window-width="1920"
     inkscape:window-height="1028"
     inkscape:window-x="-8"
     inkscape:window-y="-8"
     inkscape:window-maximized="1" />
  <metadata
     id="metadata5519">
    <rdf:RDF>
      <cc:Work
         rdf:about="">
        <dc:format>image/svg+xml</dc:format>
        <dc:type
           rdf:resource="http://purl.org/dc/dcmitype/StillImage" />
        <dc:title></dc:title>
      </cc:Work>
    </rdf:RDF>
  </metadata>
  <g
     inkscape:label="Layer 1"
     inkscape:groupmode="layer"
     id="layer1"
     transform="translate(-128.99579,-122.38667)">
    <path
       style="fill:#00b2ff;fill-opacity:1;stroke:none;stroke-width:4.91338587;stroke-linecap:square;stroke-linejoin:round;stroke-miterlimit:4;stroke-dasharray:none;stroke-opacity:1;paint-order:markers stroke fill"
       d="M 44.605469,0 A 11.071428,11.071428 0 0 0 43.585938,0.05664062 C 37.230325,0.53743976 32.074594,5.4455551 31.214844,11.691406 c -0.08092,0.03494 -0.159639,0.07382 -0.240235,0.109375 -1.758084,-1.091125 -3.775057,-1.793775 -5.939453,-1.9785154 A 11.071428,11.071428 0 0 0 23.890625,9.7617188 11.071428,11.071428 0 0 0 22.908203,9.8125 c -6.988918,0.506265 -12.546875,6.369522 -12.546875,13.482422 0,2.198742 0.54058,4.27189 1.480469,6.111328 -6.6510516,0.837549 -11.83789075,6.536237 -11.83789075,13.40625 0,0.108038 0.01307632,0.21286 0.015625,0.320312 C 0.01565389,43.265177 0,43.39408 0,43.527344 c 0,6.87071 5.1927323,12.576412 11.845703,13.414062 -0.93939,1.839964 -1.482422,3.91321 -1.482422,6.111328 0,7.442268 6.083123,13.53125 13.525391,13.53125 2.684078,0 5.185083,-0.800305 7.294922,-2.162109 0.499485,4.165441 2.908151,7.75375 6.320312,9.876953 V 139.28516 H 2.4628906 a 2.4569385,2.4569385 0 0 0 -2.45898435,2.45898 v 8.57031 a 2.4569385,2.4569385 0 0 0 2.45898435,2.45899 H 182.46289 a 2.4569385,2.4569385 0 0 0 2.45117,-2.45899 v -8.57031 a 2.4569385,2.4569385 0 0 0 -2.45117,-2.45898 H 51.699219 V 84.832031 c 3.903115,-2.017664 6.712128,-5.871847 7.257812,-10.40625 2.108315,1.358916 4.606131,2.158203 7.28711,2.158203 7.442267,0 13.53125,-6.088982 13.53125,-13.53125 0,-2.198824 -0.541557,-4.272881 -1.482422,-6.113281 6.650028,-0.840361 11.839843,-6.543488 11.839843,-13.412109 0,-0.120728 -0.01439,-0.237431 -0.01758,-0.357422 0.0032,-0.119826 0.01758,-0.236865 0.01758,-0.357422 0,-6.868688 -5.189674,-12.566983 -11.839843,-13.40625 0.940865,-1.839489 1.482422,-3.912504 1.482422,-6.111328 0,-7.107573 -5.556903,-12.966597 -12.539063,-13.4804689 a 11.071428,11.071428 0 0 0 -0.988281,-0.052734 11.071428,11.071428 0 0 0 -1.121094,0.058594 C 62.869618,10.007677 60.768571,10.754245 58.957031,11.921875 58.194715,5.5649931 52.98453,0.54187413 46.548828,0.05664062 A 11.071428,11.071428 0 0 0 45.535156,0 11.071428,11.071428 0 0 0 45.072266,0.0234375 11.071428,11.071428 0 0 0 44.605469,0 Z M 24.773438,71.623047 c -0.290988,0.0292 -0.585586,0.04492 -0.884766,0.04492 -0.04348,0 -0.08558,-0.0052 -0.128906,-0.0059 a 11.071428,11.071428 0 0 0 0.130859,0.0039 11.071428,11.071428 0 0 0 0.882813,-0.04297 z m 40.585937,0 a 11.071428,11.071428 0 0 0 0.888672,0.04297 11.071428,11.071428 0 0 0 0.111328,-0.0039 c -0.03875,5.04e-4 -0.07635,0.0059 -0.115234,0.0059 -0.299181,0 -0.593779,-0.01572 -0.884766,-0.04492 z"
       transform="matrix(0.26458333,0,0,0.26458333,128.99579,130.89063)"
       id="rect4805"
       inkscape:connector-curvature="0" />
  </g>
</svg>
