<?xml version="1.0" encoding="UTF-8" standalone="no"?>
<!-- Created with Inkscape (http://www.inkscape.org/) -->

<svg
   xmlns:dc="http://purl.org/dc/elements/1.1/"
   xmlns:cc="http://creativecommons.org/ns#"
   xmlns:rdf="http://www.w3.org/1999/02/22-rdf-syntax-ns#"
   xmlns:svg="http://www.w3.org/2000/svg"
   xmlns="http://www.w3.org/2000/svg"
   xmlns:sodipodi="http://sodipodi.sourceforge.net/DTD/sodipodi-0.dtd"
   xmlns:inkscape="http://www.inkscape.org/namespaces/inkscape"
   width="255.98605"
   height="255.98605"
   viewBox="0 0 67.729645 67.729647"
   version="1.1"
   id="svg8363"
   inkscape:version="0.92.1 r15371"
   sodipodi:docname="terrace.svg">
  <defs
     id="defs8357" />
  <sodipodi:namedview
     id="base"
     pagecolor="#ffffff"
     bordercolor="#666666"
     borderopacity="1.0"
     inkscape:pageopacity="0.0"
     inkscape:pageshadow="2"
     inkscape:zoom="2.8"
     inkscape:cx="15.186071"
     inkscape:cy="108.89309"
     inkscape:document-units="mm"
     inkscape:current-layer="layer1"
     showgrid="false"
     fit-margin-top="0"
     fit-margin-left="0"
     fit-margin-right="0"
     fit-margin-bottom="0"
     inkscape:window-width="1920"
     inkscape:window-height="1028"
     inkscape:window-x="-8"
     inkscape:window-y="-8"
     inkscape:window-maximized="1"
     units="px" />
  <metadata
     id="metadata8360">
    <rdf:RDF>
      <cc:Work
         rdf:about="">
        <dc:format>image/svg+xml</dc:format>
        <dc:type
           rdf:resource="http://purl.org/dc/dcmitype/StillImage" />
        <dc:title></dc:title>
      </cc:Work>
    </rdf:RDF>
  </metadata>
  <g
     inkscape:label="Layer 1"
     inkscape:groupmode="layer"
     id="layer1"
     transform="translate(-62.141718,-131.44214)">
    <path
       style="fill:#00b2ff;fill-opacity:1;stroke:none;stroke-width:0.33408868;stroke-linecap:butt;stroke-linejoin:round;stroke-miterlimit:4;stroke-dasharray:none;stroke-opacity:1;paint-order:markers stroke fill"
       d="m 61.869141,0.00390625 a 5.33341,2.6789029 5.2502585e-7 0 0 -2.523438,0.39453125 5.33341,2.6789029 5.2502585e-7 0 0 -1.824219,0.9375 L 29.001953,26.064453 0.72070312,50.583984 a 5.33341,2.6789029 5.2502585e-7 0 0 4.60351568,4.023438 l 5.0781252,0.0039 v 68.759758 c 0,2.97578 2.397296,5.38086 5.373047,5.38086 h 32.074218 a 0.16706105,0.16706105 0 0 0 0.169922,-0.16992 V 85.568359 h 27.947266 v 43.013671 a 0.16706105,0.16706105 0 0 0 0.05273,0.11914 0.16706105,0.16706105 0 0 0 0.117188,0.0508 h 32.074225 5.64062 a 0.16706105,0.16706105 0 0 0 0.11719,-0.0508 0.16706105,0.16706105 0 0 0 0.0527,-0.11914 V 85.568359 h 27.94727 v 43.013671 a 0.16706105,0.16706105 0 0 0 0.0742,0.14063 0.16706105,0.16706105 0 0 0 0.0957,0.0293 h 32.07422 5.64063 a 0.16706105,0.16706105 0 0 0 0.11718,-0.0508 0.16706105,0.16706105 0 0 0 0.0527,-0.11914 V 85.568359 h 27.94726 v 43.013671 a 0.16706105,0.16706105 0 0 0 0.16211,0.16992 h 32.08203 c 2.97574,0 5.37305,-2.40508 5.37305,-5.38086 V 54.6875 l 5.05664,0.0039 a 5.33341,2.6789029 5.2502585e-7 0 0 4.63281,-4.015625 L 226.90234,25.90625 198.76562,1.3417969 a 5.33341,2.6789029 5.2502585e-7 0 0 -7.41992,-0.9433594 5.33341,2.6789029 5.2502585e-7 0 0 -1.82226,0.9375 L 161.04297,26.029297 160.90234,25.90625 132.76562,1.3417969 a 5.33341,2.6789029 5.2502585e-7 0 0 -7.41992,-0.9433594 5.33341,2.6789029 5.2502585e-7 0 0 -1.82422,0.9375 L 95.041016,26.029297 94.900391,25.90625 66.765625,1.3417969 A 5.33341,2.6789029 5.2502585e-7 0 0 61.869141,0.00390625 Z"
       transform="matrix(0.26458333,0,0,0.26458333,62.141718,165.10593)"
       id="path4518"
       inkscape:connector-curvature="0" />
  </g>
</svg>
